# xmcd CD database file
#
# Track frame offsets:
#	150
#	18352
#	34570
#	50808
#	69007
#
# Disc length: 1136 seconds
#
# Revision: 0
# Processed by: cddbd v1.5.1PL0 Copyright (c) Steve Scherf et al.
# Submitted via: CDex 1.40Beta9
#
DISCID=35046e05
DTITLE=L'Arc〜en〜Ciel - Killing Me
DYEAR=2005
DGENRE=J-Pop
TTITLE0=Killing Me
TTITLE1=Round and Round 2005
TTITLE2=Round and Round 2005 feat. P'UNK Aoki
TTITLE3=Killing Me (hydeless version)
TTITLE4=Round and Round 2005 (TETSU P'UNKless version)
EXTD=YEAR: 2005/01/13
EXTT0=
EXTT1=
EXTT2=
EXTT3=
EXTT4=
PLAYORDER=
